<?xml version="1.0" encoding="utf-8"?>
<!-- Generator: Adobe Illustrator 21.0.2, SVG Export Plug-In . SVG Version: 6.00 Build 0)  -->
<svg version="1.1" id="Capa_1" xmlns="http://www.w3.org/2000/svg" xmlns:xlink="http://www.w3.org/1999/xlink" x="0px" y="0px"
	 viewBox="0 0 82.2 178.6" style="enable-background:new 0 0 82.2 178.6;" xml:space="preserve">
<style type="text/css">
	.st0{fill:#08042C;}
	.st1{fill:none;stroke:#00A99D;stroke-miterlimit:10;}
	.st2{fill:#08042C;stroke:#00A99D;}
	.st3{fill:none;stroke:#00A99D;}
</style>
<g id="mano2">
	<g>
		<g id="XMLID_1_">
			<g>
				<path class="st0" d="M17.1,78.4c-1.1-1.7-2.9-2.8-4.1-4.4c-1.8-2.4-2.3-5.6-4.5-7.7c-2.2-2.1-3.3-4.7-5.3-6.9
					c-2.2-2.4-3.5-4.6-0.5-7.1c2.1-1.8,5.1-2.1,7.7-0.9c2.5,1.2,4.8,2.8,7,4.5c1.4,1,2.1,1.7,2.8,3.3c0.6,1.5,0.5,2.7,1.5,3.9
					c1.5,1.9,3.4,3.7,4.6,5.8c2.8,4.6,3.4,7.2,5.3,6.9v0c0,0,0,0,0,0c0.1,0,0.2,0,0.3,0c0,0,0,0,0,0c4.1,0.1,7.1-0.8,10.7-2.2
					c0.8-0.3,2.2-0.8,2.9-1.4c1-0.9,0.8-1.3,0.9-2.6c0.3-1.9,0.8-4.3,1.6-6.1c0.6-1.6,1.5-2.8,2.1-4.2c0.5-1.2,0.7-2.5,0.2-4
					c-0.4-1.3-0.7-2.6-0.9-3.8c-0.2-1.5-0.4-3-0.4-4.5c0-0.2,0-0.3,0-0.5c0.1-2.8,1.2-5.3,0.7-8.2c-0.3-1.3-0.8-2.5-1.4-3.7
					c-0.7-1.5-1.5-2.9-1.9-4.6c-0.6-2.7-0.1-5.6-0.7-8.4c-0.7-3.1-2.9-5.7-3.5-8.8c-0.5-2.5-1-6.4,0.6-8.5c1.7-2.3,3.3-2.9,6.1-2
					c2,1.2,1.3,5.4,1.6,7.5c0.4,3.3,1.7,4.9,3.4,7.7c3,5.1,4.1,11.2,6.7,16.6c2.6,5.4,4.1,10.8,4.6,16.6c0.4,5.7,2.2,12.1,4,17.5
					c0.4,1.4,0.2,2.7,0.3,4.2c0.1,1.5,0.8,2.9,1,4.4c0.2,1.4,0.1,2.9,0.3,4.3c0.3,1.6,1.1,2.7,1.7,4.2c2,5.1,2.2,11.6,1.9,17.1
					c-0.2,5.8,0.1,11.4,0.1,17.2c0,1.8,0.6,2.2,1.2,3.7c0.5,1.2,0.7,2.9,0.9,4.2c0.5,2.8,1.3,5.6,1.7,8.4c0.9,5.6,0.6,11.6,1.2,17.2
					c0.6,5.6,1.4,12.8,1.8,18.5h0c0.1,0.7,0.4,6.4-13.2,6.8c-5.8,0.1-10.6-2-15.9-3.8c-3.5-1.1-6.5-2.3-9.7-4.4
					c-1.6-1.1-3-2.4-4.6-3.4c-0.8-0.5-1.5-1-2.3-1.6c-0.6-0.4-0.8-1.9-0.7-2.6c0-0.1,0-0.1,0-0.2c0.4-1.8,0.2-3.1,0.9-4.9
					c2.1-5.7,3.8-11.1,5.4-16.8c0.8-2.9,2.1-5.4,2.8-8.4c0.6-2.8,1.3-5.8,0.6-8.6c-0.9-3.6-3-4.2-5.8-6.2c-2.1-1.5-4.6-3.3-5.8-5.6
					c-1.3-2.5-1.7-5.7-2.6-8.4c-0.9-3-1.1-4.2-2.7-6.8c-0.5-1-3.4-4.8-4-5.7c-1.2-1.9-2.1-4-3.4-6C18.9,82.8,18.4,80.4,17.1,78.4z"
					/>
				<path class="st0" d="M41.2,57.3c-1.5,0.2-2.6,0.5-4.1,0.4c-1.4-0.1-2.8,0-4.2-0.2c-2.2-0.2-6.9-1.9-7.3-4.4
					c-0.2-1.3,1.2-2.9,2.4-3.2c1.2-0.3,2.9,0,4.2,0.1c1.5,0.1,2.6,0.5,4.1,0.3c1.3-0.2,3.9,0,5.1-0.3l0-0.1c1.1,0.2,2.2,0.3,3.2,0.6
					c1.3,0.4,3,1,4.2,1l0.3,0c0.2,1.3,0.5,2.5,0.9,3.8c0.5,1.6,0.3,2.8-0.2,4l-0.3-0.1c-1.4,0.1-3.3,0.1-4.6-0.5
					c-0.7-0.3-1-0.9-1.7-1.1C42.7,57.3,41.8,57.2,41.2,57.3z"/>
				<path class="st0" d="M27.2,47.1C27.2,47.1,27.2,47.2,27.2,47.1C27.2,47.1,27.2,47.1,27.2,47.1z"/>
				<path class="st0" d="M27.2,47.1C27.2,47.1,27.2,47.1,27.2,47.1C27.2,47,27.2,47.1,27.2,47.1z"/>
				<path class="st0" d="M27.2,47.1c-2-0.3-4.6-1.8-6.3-3c-1.1-0.7-2.1-1.6-2.6-2.9c-0.4-1.2,0.3-2.4,0.8-3.4l0.1-0.2
					c0.6,0.3,1.2,0.6,1.7,0.8c1.3,0.6,2.7,1.1,4,1.4c1.4,0.3,2.8,0.5,4.3,0.6c1.2,0.1,2.1-0.2,3.2-0.5c1.3-0.4,1.3,0.5,2.3,1.2
					c0.6,0.4,1.2,0.8,1.8,1.1c1.3,0.7,2.3,1.8,3.7,2.4c1.2,0.5,2.6,0.8,3.9,1c0.8,0.2,4,0.9,4.4,0.6l0.2,0c0,0.2,0,0.3,0,0.5
					c0,1.6,0.1,3.1,0.4,4.5l-0.3,0c-1.2-0.1-2.9-0.7-4.2-1c-1.1-0.3-2.2-0.4-3.2-0.6c-0.3-0.1-0.7-0.1-1-0.2
					c-1.3-0.3-2.8-0.7-3.9-1.6c-1.3-1-2.1-1.3-3.9-1.2C30.7,46.9,29.2,47.1,27.2,47.1C27.2,47.1,27.2,47,27.2,47.1z"/>
				<path class="st0" d="M48.6,46.3c-0.4,0.3-3.7-0.5-4.4-0.6c-1.3-0.2-2.6-0.6-3.9-1c-1.4-0.5-2.4-1.7-3.7-2.4
					c-0.6-0.3-1.2-0.7-1.8-1.1c-1-0.7-0.9-1.6-2.3-1.2c-1.1,0.3-2.1,0.6-3.2,0.5c-1.5-0.1-2.9-0.3-4.3-0.6c-1.4-0.3-2.7-0.8-4-1.4
					c-0.5-0.3-1.1-0.5-1.7-0.8c-0.8-0.4-1.6-1-2-1.7c-1.3-2.1-1.1-3.9-0.1-5.7c0.5-1.1,4.2-0.3,5.3-0.1c1.8,0.3,3.5,0.8,5.2,1.2
					c1.3,0.4,2.6-0.2,3.9-0.5c5.6-1.2,11.5,1,16.5,3.5l0.1,0c0.6,1.2,1.2,2.4,1.4,3.7c0.5,2.9-0.6,5.4-0.7,8.2L48.6,46.3z"/>
			</g>
			<g>
				<path class="st1" d="M31.4,75.8c-1.9,0.3-2.5-2.4-5.3-6.9c-1.3-2.1-3.1-3.9-4.6-5.8c-1-1.2-0.9-2.4-1.5-3.9
					c-0.7-1.6-1.4-2.3-2.8-3.3c-2.2-1.7-4.5-3.4-7-4.5c-2.6-1.2-5.5-0.9-7.7,0.9c-2.9,2.5-1.7,4.7,0.5,7.1c2,2.2,3.2,4.9,5.3,6.9
					c2.2,2.1,2.7,5.3,4.5,7.7c1.2,1.6,3,2.8,4.1,4.4c1.3,2,1.8,4.4,3.1,6.3c1.3,1.9,2.2,4,3.4,6c0.6,0.9,3.5,4.7,4,5.7
					c0.1,0.1,0.1,0.2,0.1,0.2"/>
				<path class="st1" d="M34.7,162.4C34.7,162.4,34.6,162.4,34.7,162.4"/>
				<path class="st1" d="M27.5,96.4c1.6,2.7,1.8,3.9,2.7,6.8c0.8,2.7,1.2,5.8,2.6,8.4c1.2,2.3,3.7,4.1,5.8,5.6
					c2.8,2,4.9,2.6,5.8,6.2c0.7,2.8,0,5.8-0.6,8.6c-0.7,3-2,5.5-2.8,8.4c-1.6,5.7-3.3,11.2-5.4,16.8c-0.7,1.8-0.5,3.1-0.9,4.9"/>
				<path class="st1" d="M31.4,75.8C31.4,75.8,31.4,75.8,31.4,75.8c0.1,0,0.2,0,0.3,0"/>
				<path class="st1" d="M48.6,2.2c-2.8-0.9-4.4-0.3-6.1,2c-1.5,2.1-1.1,6-0.6,8.5c0.6,3.1,2.9,5.7,3.5,8.8c0.6,2.7,0.2,5.6,0.7,8.4
					c0.3,1.6,1.1,3.1,1.9,4.6c0.6,1.2,1.2,2.4,1.4,3.7c0.5,2.9-0.6,5.4-0.7,8.2c0,0.2,0,0.3,0,0.5c0,1.6,0.1,3.1,0.4,4.5
					c0.2,1.3,0.5,2.5,0.9,3.8c0.5,1.6,0.3,2.8-0.2,4c-0.6,1.4-1.5,2.7-2.1,4.2c-0.7,1.8-1.3,4.2-1.6,6.1c-0.2,1.3,0.1,1.7-0.9,2.6
					c-0.7,0.6-2,1.1-2.9,1.4c-3.6,1.5-6.6,2.4-10.7,2.2c0,0,0,0,0,0c-0.1,0-0.1,0-0.2,0c0,0-0.1,0-0.1,0"/>
				<path class="st1" d="M81.1,171.4c0.1,0.7,0.4,6.4-13.2,6.8c-5.8,0.1-10.6-2-15.9-3.8c-3.5-1.1-6.5-2.3-9.7-4.4
					c-1.6-1.1-3-2.4-4.6-3.4c-0.8-0.5-1.5-1-2.3-1.6c-0.6-0.4-0.8-1.9-0.7-2.6c0-0.1,0-0.1,0-0.2"/>
				<path class="st1" d="M47.3,1.8c0.5,0,0.9,0.1,1.3,0.4c2,1.2,1.3,5.4,1.6,7.5c0.4,3.3,1.7,4.9,3.4,7.7c3,5.1,4.1,11.2,6.7,16.6
					c2.6,5.4,4.1,10.8,4.6,16.6c0.4,5.7,2.2,12.1,4,17.5c0.4,1.4,0.2,2.7,0.3,4.2c0.1,1.5,0.8,2.9,1,4.4c0.2,1.4,0.1,2.9,0.3,4.3
					c0.3,1.6,1.1,2.7,1.7,4.2c2,5.1,2.2,11.6,1.9,17.1c-0.2,5.8,0.1,11.4,0.1,17.2c0,1.8,0.6,2.2,1.2,3.7c0.5,1.2,0.7,2.9,0.9,4.2
					c0.5,2.8,1.3,5.6,1.7,8.4c0.9,5.6,0.6,11.6,1.2,17.2c0.6,5.6,1.4,12.8,1.8,18.5c0,0.1,0,0.1,0,0.2"/>
				<path class="st1" d="M47.9,34.5C43,32,37,29.8,31.4,30.9c-1.3,0.3-2.6,0.9-3.9,0.5c-1.7-0.5-3.4-0.9-5.2-1.2
					c-1.1-0.2-4.8-1-5.3,0.1"/>
				<path class="st1" d="M48.6,46.3c-0.4,0.3-3.7-0.5-4.4-0.6c-1.3-0.2-2.6-0.6-3.9-1c-1.4-0.5-2.4-1.7-3.7-2.4
					c-0.6-0.3-1.2-0.7-1.8-1.1c-1-0.7-0.9-1.6-2.3-1.2c-1.1,0.3-2.1,0.6-3.2,0.5c-1.5-0.1-2.9-0.3-4.3-0.6c-1.4-0.3-2.7-0.8-4-1.4
					c-0.5-0.3-1.1-0.5-1.7-0.8c-0.8-0.4-1.6-1-2-1.7c-1.3-2.1-1.1-3.9-0.1-5.7"/>
				<path class="st1" d="M27.2,47.1C27.2,47.1,27.2,47.1,27.2,47.1c2.1,0,3.5-0.2,5.5-0.4c1.8-0.1,2.5,0.2,3.9,1.2
					c1.1,0.8,2.6,1.2,3.9,1.6c0.3,0.1,0.7,0.1,1,0.2c1.1,0.2,2.2,0.3,3.2,0.6c1.3,0.4,3,1,4.2,1"/>
				<path class="st1" d="M19.1,37.9c-0.5,1-1.2,2.2-0.8,3.4c0.4,1.3,1.4,2.1,2.6,2.9c1.7,1.1,4.3,2.7,6.3,3c0,0.1,0,0,0,0
					c0,0,0-0.1,0,0"/>
				<path class="st1" d="M41.4,49.9c-1.2,0.4-3.8,0.2-5.1,0.3c-1.4,0.2-2.6-0.2-4.1-0.3c-1.3-0.1-3-0.4-4.2-0.1
					c-1.2,0.3-2.6,1.9-2.4,3.2c0.4,2.5,5.1,4.2,7.3,4.4c1.4,0.1,2.8,0,4.2,0.2c1.5,0.1,2.6-0.2,4.1-0.4c0.6-0.1,1.4,0,2,0.2
					c0.7,0.2,1,0.8,1.7,1.1c1.3,0.5,3.2,0.6,4.6,0.5"/>
			</g>
		</g>
		<path class="st2" d="M37.4,34.8c-0.5,0.5-3.1,5.9-3.9,5.2"/>
		<path class="st2" d="M38.7,35.5c1,1.9-2.4,4.4-2.5,6.7c0-0.1,0-0.2,0-0.2"/>
		<path class="st2" d="M36.1,43.7c-0.4,0.8-1.9,2.2-1.6,3.1"/>
		<path class="st2" d="M37.4,45.1c-0.7,0.7-1.8,1.9-1.3,2.5"/>
		<path class="st3" d="M44.2,58.1c-0.3,0,0.7-1.4,0.8-2.5"/>
		<path class="st2" d="M43.3,55.1c0.8,0.7-1.6,2.2-0.9,1.8"/>
		<path class="st3" d="M17.5,30.2c0.4,0.3,1.3,1.3,2.1,1.7c0.8,0.5,1.7,0.6,2.7,0.7c1.1,0.1,4.7,0.1,4.7-1"/>
		<path class="st3" d="M36.8,50.6c0.1,1.4-3.5,2-4.6,2c-1.4,0-4-0.6-5.1-1.6c-0.1,0-0.2,0.1-0.1,0.2"/>
		<path class="st3" d="M5,61.8c0.6,1.1,2.8,0.9,3.9,0.9c1.6,0,2.7-0.2,2.6-2c-0.1-1.5-0.7-2.5-1.8-3.6c-1.5-1.7-2.8-3.7-5.5-3
			c-0.8,0.2-2.7,2.3-3,2.3"/>
		<path class="st3" d="M47.4,2.1c-0.1,0.8-0.7,1.5-0.8,2.4c-0.1,0.8,0,1.8,0.3,2.5c0.4,1.2,2.3,4.5,3.3,4.1"/>
		<path class="st2" d="M48.3,129.9c-0.7-0.2-3.6-1.6-3.7-3.2"/>
		<path class="st2" d="M44.2,122.8c1.5,2.3,5,3.2,7.7,5.8"/>
	</g>
</g>
</svg>
