<?xml version="1.0" encoding="utf-8"?>
<!-- Generator: Adobe Illustrator 15.0.0, SVG Export Plug-In . SVG Version: 6.00 Build 0)  -->
<!DOCTYPE svg PUBLIC "-//W3C//DTD SVG 1.1//EN" "http://www.w3.org/Graphics/SVG/1.1/DTD/svg11.dtd">
<svg version="1.1" xmlns="http://www.w3.org/2000/svg" xmlns:xlink="http://www.w3.org/1999/xlink" x="0px" y="0px" width="132px"
	 height="180px" viewBox="0 0 132 180" enable-background="new 0 0 132 180" xml:space="preserve">
<g id="mano2">
	<g>
		<g id="XMLID_1_">
			<g>
				<path fill="#08042C" d="M67.05,78.4c-1.11-1.66-2.9-2.83-4.1-4.44c-1.78-2.38-2.28-5.63-4.5-7.7c-2.2-2.05-3.31-4.71-5.35-6.92
					c-2.18-2.4-3.45-4.63-0.51-7.08c2.14-1.79,5.08-2.07,7.66-0.89c2.55,1.15,4.78,2.83,7.02,4.53c1.36,1.05,2.09,1.66,2.76,3.29
					c0.59,1.48,0.49,2.71,1.46,3.92c1.52,1.91,3.37,3.7,4.63,5.79c2.77,4.55,3.39,7.17,5.25,6.91V75.8c0,0,0.01,0,0.03,0
					c0.06,0,0.19,0.01,0.26,0c0.02,0,0.04,0,0.04,0c4.07,0.13,7.06-0.76,10.65-2.23c0.83-0.33,2.15-0.82,2.86-1.39
					c1.04-0.88,0.78-1.34,0.93-2.6c0.25-1.91,0.84-4.29,1.55-6.12c0.61-1.56,1.54-2.85,2.09-4.24c0.48-1.19,0.7-2.46,0.24-4.01
					c-0.39-1.3-0.68-2.57-0.87-3.85c-0.24-1.47-0.36-2.96-0.38-4.52c0-0.15,0-0.31,0.01-0.46c0.08-2.82,1.19-5.26,0.66-8.2
					c-0.25-1.3-0.81-2.5-1.42-3.71c-0.74-1.47-1.53-2.94-1.87-4.57c-0.55-2.72-0.12-5.64-0.71-8.36c-0.67-3.07-2.94-5.71-3.53-8.79
					c-0.5-2.52-0.96-6.37,0.57-8.5c1.69-2.32,3.34-2.89,6.09-2.02c1.96,1.24,1.35,5.38,1.6,7.46c0.38,3.26,1.73,4.86,3.36,7.66
					c3.02,5.12,4.13,11.19,6.71,16.57c2.57,5.38,4.11,10.76,4.55,16.63c0.44,5.7,2.2,12.08,3.96,17.47c0.45,1.4,0.22,2.71,0.31,4.18
					c0.1,1.52,0.79,2.87,1.03,4.36c0.22,1.44,0.13,2.92,0.34,4.35c0.25,1.6,1.05,2.72,1.66,4.23c2,5.07,2.15,11.62,1.95,17.1
					c-0.19,5.81,0.06,11.4,0.09,17.16c0.01,1.83,0.56,2.22,1.22,3.7c0.53,1.15,0.68,2.93,0.89,4.22c0.49,2.77,1.29,5.55,1.72,8.36
					c0.86,5.65,0.57,11.55,1.23,17.23c0.64,5.59,1.41,12.83,1.84,18.46h0.01c0.07,0.72,0.4,6.45-13.22,6.82
					c-5.78,0.13-10.63-2.04-15.92-3.83c-3.46-1.15-6.48-2.26-9.66-4.4c-1.58-1.05-2.99-2.35-4.59-3.41
					c-0.77-0.49-1.52-1.04-2.28-1.58c-0.57-0.41-0.84-1.93-0.74-2.59c0.01-0.06,0.02-0.12,0.04-0.16c0.4-1.83,0.21-3.11,0.89-4.94
					c2.05-5.66,3.8-11.14,5.39-16.84c0.8-2.88,2.11-5.44,2.77-8.42c0.61-2.8,1.33-5.82,0.62-8.64c-0.93-3.57-3.02-4.15-5.82-6.15
					c-2.09-1.51-4.56-3.34-5.76-5.64c-1.33-2.53-1.72-5.67-2.57-8.36c-0.92-2.96-1.14-4.17-2.7-6.83c-0.49-1.01-3.4-4.77-3.96-5.72
					c-1.15-1.95-2.11-4.04-3.38-5.96C68.88,82.76,68.4,80.37,67.05,78.4z"/>
				<path fill="#08042C" d="M91.23,57.34c-1.47,0.17-2.57,0.48-4.09,0.36c-1.38-0.12-2.79-0.04-4.17-0.17
					c-2.17-0.2-6.86-1.89-7.28-4.41c-0.21-1.3,1.17-2.91,2.36-3.24c1.2-0.33,2.93-0.04,4.18,0.06c1.48,0.11,2.63,0.5,4.06,0.27
					c1.28-0.19,3.87,0.03,5.08-0.35l0.02-0.11c1.07,0.2,2.17,0.32,3.23,0.61c1.29,0.36,3.03,0.97,4.18,1.03l0.33-0.05
					c0.19,1.28,0.48,2.55,0.87,3.85c0.47,1.56,0.25,2.82-0.24,4.01l-0.27-0.11c-1.41,0.11-3.26,0.07-4.58-0.48
					c-0.67-0.28-0.97-0.89-1.7-1.13C92.67,57.3,91.84,57.25,91.23,57.34z"/>
				<path fill="#08042C" d="M77.21,47.12c0,0.03-0.01,0.06-0.04,0C77.18,47.12,77.2,47.12,77.21,47.12z"/>
				<path fill="#08042C" d="M77.21,47.12c-0.01,0-0.03,0-0.04,0C77.19,47.04,77.2,47.08,77.21,47.12z"/>
				<path fill="#08042C" d="M77.17,47.12c-2.01-0.31-4.61-1.85-6.34-2.98c-1.12-0.73-2.11-1.56-2.55-2.87
					c-0.42-1.21,0.3-2.4,0.81-3.36l0.13-0.24c0.58,0.33,1.19,0.59,1.71,0.84c1.35,0.64,2.66,1.13,4.04,1.43
					c1.42,0.32,2.82,0.52,4.32,0.63c1.15,0.09,2.13-0.18,3.21-0.53c1.34-0.41,1.29,0.45,2.28,1.2c0.56,0.4,1.18,0.77,1.77,1.08
					c1.31,0.69,2.28,1.84,3.68,2.39c1.24,0.47,2.56,0.81,3.88,1.04c0.77,0.15,4.02,0.92,4.44,0.61l0.21,0.01
					c-0.01,0.15-0.01,0.31-0.01,0.46c0.02,1.56,0.14,3.06,0.38,4.52l-0.33,0.05c-1.15-0.06-2.89-0.67-4.18-1.03
					c-1.06-0.29-2.16-0.41-3.23-0.61c-0.33-0.06-0.67-0.12-0.99-0.2c-1.27-0.33-2.78-0.72-3.87-1.57c-1.35-1.02-2.13-1.32-3.88-1.21
					c-1.98,0.15-3.4,0.31-5.45,0.36C77.2,47.08,77.19,47.04,77.17,47.12z"/>
				<path fill="#08042C" d="M98.56,46.35c-0.42,0.31-3.68-0.46-4.44-0.61c-1.31-0.23-2.64-0.57-3.88-1.04
					c-1.4-0.55-2.37-1.69-3.68-2.39c-0.59-0.31-1.22-0.68-1.77-1.08c-1-0.74-0.94-1.6-2.28-1.2c-1.08,0.35-2.06,0.62-3.21,0.53
					c-1.5-0.11-2.9-0.31-4.32-0.63c-1.38-0.3-2.7-0.79-4.04-1.43c-0.52-0.25-1.13-0.51-1.71-0.84c-0.82-0.44-1.59-0.98-2.03-1.67
					c-1.33-2.07-1.13-3.89-0.09-5.68c0.52-1.07,4.22-0.28,5.28-0.08c1.75,0.33,3.46,0.78,5.17,1.23c1.33,0.35,2.56-0.24,3.89-0.52
					c5.61-1.16,11.54,1.05,16.48,3.54l0.09-0.05c0.61,1.21,1.17,2.41,1.42,3.71c0.53,2.94-0.58,5.38-0.66,8.2L98.56,46.35z"/>
			</g>
			<g>
				<path fill="none" stroke="#00A99D" stroke-miterlimit="10" d="M81.37,75.81c-1.86,0.26-2.48-2.36-5.25-6.91
					c-1.26-2.09-3.11-3.88-4.63-5.79c-0.97-1.21-0.87-2.44-1.46-3.92c-0.67-1.63-1.41-2.25-2.76-3.29c-2.24-1.7-4.47-3.38-7.02-4.53
					c-2.58-1.18-5.52-0.9-7.66,0.89c-2.93,2.45-1.67,4.69,0.51,7.08c2.04,2.21,3.15,4.88,5.35,6.92c2.22,2.07,2.72,5.31,4.5,7.7
					c1.21,1.61,2.99,2.78,4.1,4.44c1.34,1.98,1.82,4.36,3.11,6.33c1.27,1.91,2.23,4.01,3.38,5.96c0.56,0.95,3.47,4.71,3.96,5.72
					c0.06,0.12,0.08,0.2,0.06,0.23"/>
				<path fill="none" stroke="#00A99D" stroke-miterlimit="10" d="M84.65,162.39c0,0.02-0.01,0.04-0.01,0.06"/>
				<path fill="none" stroke="#00A99D" stroke-miterlimit="10" d="M77.5,96.4c1.56,2.66,1.78,3.87,2.7,6.83
					c0.85,2.69,1.24,5.83,2.57,8.36c1.2,2.3,3.67,4.13,5.76,5.64c2.79,2,4.89,2.58,5.82,6.15c0.71,2.83-0.01,5.84-0.62,8.64
					c-0.65,2.98-1.97,5.54-2.77,8.42c-1.59,5.7-3.34,11.17-5.39,16.84c-0.68,1.83-0.49,3.12-0.89,4.94"/>
				<path fill="none" stroke="#00A99D" stroke-miterlimit="10" d="M81.37,75.8c0,0,0.01,0,0.03,0c0.06,0,0.19,0.01,0.26,0"/>
				<path fill="none" stroke="#00A99D" stroke-miterlimit="10" d="M98.57,2.22c-2.75-0.87-4.4-0.31-6.09,2.02
					c-1.53,2.13-1.07,5.98-0.57,8.5c0.59,3.08,2.86,5.72,3.53,8.79c0.59,2.72,0.16,5.64,0.71,8.36c0.34,1.62,1.13,3.1,1.87,4.57
					c0.61,1.21,1.17,2.41,1.42,3.71c0.53,2.94-0.58,5.38-0.66,8.2c-0.01,0.15-0.01,0.31-0.01,0.46c0.02,1.56,0.14,3.06,0.38,4.52
					c0.19,1.28,0.48,2.55,0.87,3.85c0.47,1.56,0.25,2.82-0.24,4.01c-0.56,1.39-1.48,2.68-2.09,4.24c-0.71,1.83-1.3,4.21-1.55,6.12
					c-0.15,1.26,0.11,1.73-0.93,2.6c-0.71,0.58-2.03,1.06-2.86,1.39c-3.59,1.47-6.58,2.36-10.65,2.23c0,0-0.02,0-0.04,0
					c-0.06,0-0.12,0-0.18-0.01c-0.03,0-0.06,0-0.08,0.01"/>
				<path fill="none" stroke="#00A99D" stroke-miterlimit="10" d="M131.05,171.37c0.07,0.72,0.4,6.45-13.22,6.82
					c-5.78,0.13-10.63-2.04-15.92-3.83c-3.46-1.15-6.48-2.26-9.66-4.4c-1.58-1.05-2.99-2.35-4.59-3.41
					c-0.77-0.49-1.52-1.04-2.28-1.58c-0.57-0.41-0.84-1.93-0.74-2.59c0.01-0.06,0.02-0.12,0.04-0.16"/>
				<path fill="none" stroke="#00A99D" stroke-miterlimit="10" d="M97.28,1.85c0.52,0.02,0.95,0.14,1.29,0.36
					c1.96,1.24,1.35,5.38,1.6,7.46c0.38,3.26,1.73,4.86,3.36,7.66c3.02,5.12,4.13,11.19,6.71,16.57c2.57,5.38,4.11,10.76,4.55,16.63
					c0.44,5.7,2.2,12.08,3.96,17.47c0.45,1.4,0.22,2.71,0.31,4.18c0.1,1.52,0.79,2.87,1.03,4.36c0.22,1.44,0.13,2.92,0.34,4.35
					c0.25,1.6,1.05,2.72,1.66,4.23c2,5.07,2.15,11.62,1.95,17.1c-0.19,5.81,0.06,11.4,0.09,17.16c0.01,1.83,0.56,2.22,1.22,3.7
					c0.53,1.15,0.68,2.93,0.89,4.22c0.49,2.77,1.29,5.55,1.72,8.36c0.86,5.65,0.57,11.55,1.23,17.23
					c0.64,5.59,1.41,12.83,1.84,18.46c0.01,0.06,0.01,0.12,0.01,0.18"/>
				<path fill="none" stroke="#00A99D" stroke-miterlimit="10" d="M97.92,34.49c-4.94-2.49-10.87-4.7-16.48-3.54
					c-1.33,0.28-2.56,0.86-3.89,0.52c-1.72-0.45-3.42-0.9-5.17-1.23c-1.05-0.2-4.76-0.99-5.28,0.08"/>
				<path fill="none" stroke="#00A99D" stroke-miterlimit="10" d="M98.56,46.35c-0.42,0.31-3.68-0.46-4.44-0.61
					c-1.31-0.23-2.64-0.57-3.88-1.04c-1.4-0.55-2.37-1.69-3.68-2.39c-0.59-0.31-1.22-0.68-1.77-1.08c-1-0.74-0.94-1.6-2.28-1.2
					c-1.08,0.35-2.06,0.62-3.21,0.53c-1.5-0.11-2.9-0.31-4.32-0.63c-1.38-0.3-2.7-0.79-4.04-1.43c-0.52-0.25-1.13-0.51-1.71-0.84
					c-0.82-0.44-1.59-0.98-2.03-1.67c-1.33-2.07-1.13-3.89-0.09-5.68"/>
				<path fill="none" stroke="#00A99D" stroke-miterlimit="10" d="M77.17,47.12c0.01,0,0.03,0,0.04,0c2.04-0.05,3.47-0.2,5.45-0.36
					c1.75-0.11,2.54,0.2,3.88,1.21c1.09,0.85,2.6,1.24,3.87,1.57c0.33,0.08,0.67,0.14,0.99,0.2c1.07,0.2,2.17,0.32,3.23,0.61
					c1.29,0.36,3.03,0.97,4.18,1.03"/>
				<path fill="none" stroke="#00A99D" stroke-miterlimit="10" d="M69.09,37.91c-0.51,0.96-1.23,2.15-0.81,3.36
					c0.45,1.31,1.44,2.14,2.55,2.87c1.73,1.13,4.33,2.67,6.34,2.98c0.03,0.06,0.04,0.03,0.04,0c-0.01-0.04-0.03-0.08-0.04,0"/>
				<path fill="none" stroke="#00A99D" stroke-miterlimit="10" d="M91.38,49.86c-1.21,0.38-3.81,0.16-5.08,0.35
					c-1.43,0.23-2.59-0.16-4.06-0.27c-1.25-0.1-2.98-0.39-4.18-0.06c-1.19,0.33-2.57,1.94-2.36,3.24c0.42,2.52,5.1,4.2,7.28,4.41
					c1.38,0.13,2.79,0.05,4.17,0.17c1.53,0.12,2.63-0.19,4.09-0.36c0.61-0.09,1.44-0.04,2.01,0.15c0.73,0.23,1.03,0.85,1.7,1.13
					c1.31,0.55,3.17,0.6,4.58,0.48"/>
			</g>
		</g>
		<path fill="#08042C" stroke="#00A99D" d="M87.37,34.76c-0.47,0.46-3.11,5.89-3.93,5.23"/>
		<path fill="#08042C" stroke="#00A99D" d="M88.73,35.51c0.98,1.86-2.42,4.38-2.48,6.69c0-0.12,0-0.19,0-0.19"/>
		<path fill="#08042C" stroke="#00A99D" d="M86.07,43.72c-0.39,0.75-1.91,2.24-1.55,3.07"/>
		<path fill="#08042C" stroke="#00A99D" d="M87.4,45.14c-0.73,0.72-1.77,1.94-1.33,2.49"/>
		<path fill="none" stroke="#00A99D" d="M94.21,58.12c-0.28-0.05,0.69-1.43,0.83-2.46"/>
		<path fill="#08042C" stroke="#00A99D" d="M93.31,55.1c0.85,0.73-1.6,2.21-0.94,1.84"/>
		<path fill="none" stroke="#00A99D" d="M67.51,30.21c0.45,0.25,1.33,1.27,2.07,1.7c0.85,0.49,1.74,0.64,2.72,0.72
			c1.07,0.09,4.69,0.09,4.72-0.96"/>
		<path fill="none" stroke="#00A99D" d="M86.84,50.6c0.12,1.44-3.53,1.97-4.57,1.97c-1.45,0.01-4-0.62-5.08-1.64
			c-0.13,0-0.17,0.08-0.13,0.24"/>
		<path fill="none" stroke="#00A99D" d="M55.01,61.8c0.59,1.06,2.78,0.91,3.91,0.89c1.63-0.03,2.71-0.23,2.56-2.04
			c-0.12-1.55-0.71-2.46-1.75-3.59c-1.51-1.65-2.85-3.68-5.53-3.03c-0.81,0.2-2.72,2.34-2.96,2.28"/>
		<path fill="none" stroke="#00A99D" d="M97.36,2.08c-0.05,0.83-0.7,1.5-0.83,2.35c-0.12,0.82,0.01,1.75,0.26,2.51
			c0.41,1.23,2.32,4.52,3.27,4.11"/>
		<path fill="#08042C" stroke="#00A99D" d="M98.29,129.93c-0.73-0.2-3.58-1.6-3.67-3.21"/>
		<path fill="#08042C" stroke="#00A99D" d="M94.18,122.81c1.49,2.34,5.04,3.17,7.65,5.75"/>
	</g>
</g>
<g id="mano1">
	<g>
		<g id="XMLID_7_">
			<g>
				<path fill="#00A99D" d="M51.75,122.35c2.17,0.16,6.89,1.75,7.37,4.26c0.22,1.29-1.11,2.94-2.29,3.29
					c-1.19,0.35-2.93,0.1-4.17,0.03c-1.49-0.08-2.65-0.44-4.08-0.18c-1.26,0.21-3.87,0.05-5.08,0.45l-0.02,0.11
					c-1.08-0.17-2.18-0.28-3.24-0.54c-1.3-0.34-3.04-0.91-4.2-0.95l-0.33,0.06c-0.22-1.27-0.54-2.54-0.96-3.83
					c-0.5-1.55-0.3-2.81,0.15-4.03l0.29,0.11c1.38-0.14,3.25-0.14,4.58,0.39c0.68,0.27,0.98,0.87,1.74,1.09
					c0.57,0.18,1.39,0.21,1.99,0.11c1.46-0.2,2.57-0.54,4.1-0.45C48.96,122.36,50.37,122.26,51.75,122.35z"/>
				<path fill="#00A99D" d="M57.72,132.64c0.01,0.03,0.03,0.08,0.05,0c2.02,0.27,4.63,1.75,6.39,2.84c1.14,0.71,2.15,1.52,2.61,2.81
					c0.44,1.21-0.26,2.41-0.73,3.38l-0.12,0.24c-0.6-0.31-1.21-0.57-1.74-0.8c-1.35-0.61-2.69-1.08-4.07-1.34
					c-1.44-0.29-2.83-0.46-4.32-0.54c-1.15-0.07-2.13,0.22-3.21,0.6c-1.34,0.43-1.29-0.43-2.31-1.15c-0.55-0.39-1.19-0.75-1.79-1.04
					c-1.33-0.67-2.32-1.79-3.72-2.31c-1.25-0.45-2.6-0.75-3.92-0.96c-0.76-0.13-4.03-0.83-4.44-0.52l-0.2,0c0-0.15,0-0.31,0-0.46
					c-0.05-1.56-0.2-3.05-0.48-4.52l0.33-0.06c1.16,0.04,2.9,0.61,4.2,0.95c1.07,0.26,2.17,0.37,3.24,0.54
					c0.34,0.05,0.67,0.11,1,0.18c1.27,0.31,2.79,0.67,3.9,1.49c1.37,0.99,2.15,1.28,3.9,1.13
					C54.25,132.92,55.68,132.74,57.72,132.64z"/>
				<path fill="#00A99D" d="M36.19,133.85l0.2,0c0.41-0.31,3.69,0.39,4.44,0.52c1.32,0.21,2.66,0.52,3.92,0.96
					c1.4,0.52,2.39,1.64,3.72,2.31c0.6,0.3,1.24,0.66,1.79,1.04c1.02,0.72,0.98,1.58,2.31,1.15c1.08-0.38,2.06-0.66,3.21-0.6
					c1.49,0.08,2.89,0.25,4.32,0.54c1.39,0.27,2.72,0.74,4.07,1.34c0.53,0.24,1.14,0.5,1.74,0.8c0.81,0.43,1.59,0.95,2.05,1.63
					c1.37,2.04,1.21,3.87,0.21,5.67c-0.49,1.08-4.22,0.37-5.27,0.19c-1.76-0.29-3.48-0.71-5.2-1.12c-1.34-0.32-2.55,0.3-3.88,0.6
					c-5.59,1.28-11.56-0.81-16.55-3.2l-0.09,0.05c-0.63-1.2-1.22-2.39-1.49-3.68C35.09,139.14,36.17,136.67,36.19,133.85z"/>
				<path fill="#00A99D" d="M20.07,130.01c-0.56-5.69-2.45-12.03-4.31-17.39c-0.49-1.39-0.29-2.7-0.42-4.18
					c-0.12-1.52-0.84-2.85-1.1-4.33c-0.27-1.43-0.21-2.91-0.44-4.35c-0.28-1.59-1.1-2.7-1.74-4.19C9.93,90.56,9.66,84,9.73,78.53
					c0.09-5.81-0.28-11.4-0.45-17.17C9.25,59.53,8.7,59.16,8,57.69c-0.57-1.13-0.74-2.91-0.99-4.19c-0.54-2.77-1.41-5.53-1.89-8.33
					c-0.98-5.63-0.81-11.53-1.59-17.2C2.78,22.38,1.87,15.16,1.33,9.54C1.32,9.48,1.32,9.42,1.31,9.36
					c-0.08-1.21,0.28-6.29,13.08-6.9c5.76-0.25,10.66,1.81,16,3.49c3.49,1.09,6.51,2.13,9.75,4.2c1.6,1.02,3.04,2.3,4.66,3.31
					c0.77,0.48,1.54,1.01,2.3,1.54c0.58,0.39,0.88,1.89,0.81,2.55c0,0.01,0,0.02,0,0.02c-0.42,1.91-0.16,3.23-0.81,5.12
					c-1.94,5.71-3.57,11.2-5.06,16.94c-0.73,2.9-1.98,5.49-2.57,8.49c-0.56,2.81-1.23,5.84-0.45,8.64c1,3.55,3.11,4.09,5.94,6.03
					c2.12,1.47,4.63,3.24,5.87,5.52c1.4,2.5,1.85,5.63,2.75,8.31c0.97,2.94,1.22,4.16,2.84,6.78c0.53,1,3.5,4.71,4.08,5.63
					c1.2,1.93,2.21,4,3.49,5.89c1.32,1.94,1.86,4.31,3.26,6.26c1.14,1.63,2.94,2.77,4.18,4.35c1.83,2.34,2.4,5.58,4.65,7.6
					c2.24,2,3.42,4.64,5.51,6.81c2.23,2.35,3.54,4.56,0.64,7.07c-2.09,1.83-5.03,2.17-7.62,1.05c-2.59-1.09-4.84-2.73-7.11-4.38
					c-1.39-1.02-2.15-1.62-2.83-3.24c-0.63-1.47-0.55-2.7-1.56-3.89c-1.55-1.88-3.44-3.63-4.74-5.69c-2.85-4.49-3.55-7.1-5.39-6.8
					v0.01c0,0-0.01,0-0.03,0c-0.06,0-0.19,0-0.26,0.01c-0.02,0-0.04,0-0.04,0c-4.08-0.04-7.04,0.91-10.61,2.45
					c-0.81,0.35-2.12,0.86-2.82,1.45c-1.02,0.9-0.75,1.36-0.87,2.62c-0.22,1.92-0.75,4.31-1.42,6.15c-0.59,1.56-1.48,2.88-2.02,4.27
					c-0.46,1.21-0.65,2.48-0.15,4.03c0.42,1.3,0.74,2.56,0.96,3.83c0.28,1.46,0.43,2.96,0.48,4.52c0.01,0.15,0.01,0.31,0,0.46
					c-0.03,2.82-1.1,5.29-0.5,8.21c0.27,1.29,0.86,2.48,1.49,3.68c0.77,1.45,1.59,2.91,1.95,4.53c0.61,2.71,0.26,5.63,0.89,8.34
					c0.72,3.06,3.06,5.65,3.72,8.72c0.54,2.51,1.09,6.34-0.41,8.51c-1.63,2.36-3.27,2.96-6.03,2.14c-2.01-1.2-1.48-5.35-1.76-7.42
					c-0.45-3.26-1.83-4.82-3.53-7.59c-3.11-5.06-4.36-11.1-7.04-16.42C22.29,141.22,20.63,135.87,20.07,130.01z"/>
			</g>
			<g>
				<path fill="none" stroke="#08042C" stroke-miterlimit="10" d="M52.97,104.05c1.84-0.3,2.54,2.31,5.39,6.8
					c1.29,2.07,3.19,3.81,4.74,5.69c1,1.19,0.93,2.42,1.56,3.89c0.68,1.62,1.44,2.22,2.83,3.24c2.27,1.65,4.53,3.29,7.11,4.38
					c2.6,1.12,5.53,0.78,7.62-1.05c2.9-2.51,1.59-4.72-0.64-7.07c-2.09-2.17-3.27-4.81-5.51-6.81c-2.25-2.02-2.82-5.26-4.65-7.6
					c-1.24-1.59-3.04-2.72-4.18-4.35c-1.4-1.95-1.93-4.33-3.26-6.26c-1.29-1.89-2.3-3.96-3.49-5.89c-0.58-0.93-3.55-4.64-4.08-5.63
					c-0.07-0.12-0.09-0.2-0.08-0.23"/>
				<path fill="none" stroke="#08042C" stroke-miterlimit="10" d="M47.9,17.54c0-0.02,0.01-0.03,0.01-0.05"/>
				<path fill="none" stroke="#08042C" stroke-miterlimit="10" d="M56.41,83.38c-1.63-2.62-1.87-3.83-2.84-6.78
					c-0.91-2.67-1.35-5.81-2.75-8.31c-1.24-2.28-3.75-4.05-5.87-5.52c-2.83-1.94-4.94-2.47-5.94-6.03c-0.77-2.8-0.1-5.83,0.45-8.64
					c0.59-2.99,1.84-5.59,2.57-8.49c1.49-5.73,3.12-11.23,5.06-16.94c0.65-1.89,0.39-3.21,0.81-5.12"/>
				<path fill="none" stroke="#08042C" stroke-miterlimit="10" d="M52.97,104.06c0,0-0.01,0-0.03,0c-0.06,0-0.19,0-0.26,0.01"/>
				<path fill="none" stroke="#08042C" stroke-miterlimit="10" d="M37.31,177.98c2.76,0.82,4.4,0.22,6.03-2.14
					c1.5-2.16,0.95-6,0.41-8.51c-0.66-3.07-3-5.66-3.72-8.72c-0.63-2.71-0.28-5.63-0.89-8.34c-0.36-1.61-1.18-3.08-1.95-4.53
					c-0.63-1.2-1.22-2.39-1.49-3.68c-0.6-2.93,0.47-5.39,0.5-8.21c0-0.15,0-0.31,0-0.46c-0.05-1.56-0.2-3.05-0.48-4.52
					c-0.22-1.27-0.54-2.54-0.96-3.83c-0.5-1.55-0.3-2.81,0.15-4.03c0.54-1.39,1.43-2.71,2.02-4.27c0.67-1.84,1.21-4.24,1.42-6.15
					c0.13-1.26-0.15-1.72,0.87-2.62c0.7-0.59,2-1.1,2.82-1.45c3.57-1.54,6.53-2.5,10.61-2.45c0,0,0.02,0,0.04,0
					c0.06,0,0.12,0,0.18,0c0.03,0,0.06,0,0.08-0.01"/>
				<path fill="none" stroke="#08042C" stroke-miterlimit="10" d="M1.31,9.36c-0.08-1.21,0.28-6.29,13.08-6.9
					c5.76-0.25,10.66,1.81,16,3.49c3.49,1.09,6.51,2.13,9.75,4.2c1.6,1.02,3.04,2.3,4.66,3.31c0.77,0.48,1.54,1.01,2.3,1.54
					c0.58,0.39,0.88,1.89,0.81,2.55c0,0.01,0,0.02,0,0.02c0,0.06-0.01,0.11-0.02,0.15"/>
				<path fill="none" stroke="#08042C" stroke-miterlimit="10" d="M38.6,178.32c-0.52-0.01-0.95-0.12-1.3-0.34
					c-2.01-1.2-1.48-5.35-1.76-7.42c-0.45-3.26-1.83-4.82-3.53-7.59c-3.11-5.06-4.36-11.1-7.04-16.42
					c-2.69-5.33-4.34-10.68-4.9-16.54c-0.56-5.69-2.45-12.03-4.31-17.39c-0.49-1.39-0.29-2.7-0.42-4.18
					c-0.12-1.52-0.84-2.85-1.1-4.33c-0.27-1.43-0.21-2.91-0.44-4.35c-0.28-1.59-1.1-2.7-1.74-4.19C9.93,90.56,9.66,84,9.73,78.53
					c0.09-5.81-0.28-11.4-0.45-17.17C9.25,59.53,8.7,59.16,8,57.69c-0.57-1.13-0.74-2.91-0.99-4.19c-0.54-2.77-1.41-5.53-1.89-8.33
					c-0.98-5.63-0.81-11.53-1.59-17.2C2.78,22.38,1.87,15.16,1.33,9.54C1.32,9.48,1.32,9.42,1.31,9.36"/>
				<path fill="none" stroke="#08042C" stroke-miterlimit="10" d="M37.28,145.7c4.99,2.38,10.96,4.47,16.55,3.2
					c1.32-0.3,2.54-0.92,3.88-0.6c1.71,0.41,3.44,0.82,5.2,1.12c1.06,0.17,4.78,0.89,5.27-0.19"/>
				<path fill="none" stroke="#08042C" stroke-miterlimit="10" d="M36.39,133.85c0.41-0.31,3.69,0.39,4.44,0.52
					c1.32,0.21,2.66,0.52,3.92,0.96c1.4,0.52,2.39,1.64,3.72,2.31c0.6,0.3,1.24,0.66,1.79,1.04c1.02,0.72,0.98,1.58,2.31,1.15
					c1.08-0.38,2.06-0.66,3.21-0.6c1.49,0.08,2.89,0.25,4.32,0.54c1.39,0.27,2.72,0.74,4.07,1.34c0.53,0.24,1.14,0.5,1.74,0.8
					c0.81,0.43,1.59,0.95,2.05,1.63c1.37,2.04,1.21,3.87,0.21,5.67"/>
				<path fill="none" stroke="#08042C" stroke-miterlimit="10" d="M57.77,132.64c-0.02,0-0.03,0-0.05,0
					c-2.04,0.09-3.47,0.27-5.45,0.47c-1.74,0.15-2.53-0.14-3.9-1.13c-1.11-0.82-2.63-1.18-3.9-1.49c-0.33-0.07-0.66-0.13-1-0.18
					c-1.08-0.17-2.18-0.28-3.24-0.54c-1.3-0.34-3.04-0.91-4.2-0.95"/>
				<path fill="none" stroke="#08042C" stroke-miterlimit="10" d="M66.04,141.68c0.47-0.97,1.18-2.17,0.73-3.38
					c-0.46-1.3-1.47-2.11-2.61-2.81c-1.77-1.09-4.38-2.58-6.39-2.84c-0.04-0.06-0.05-0.03-0.05,0c0.01,0.03,0.03,0.08,0.05,0"/>
				<path fill="none" stroke="#08042C" stroke-miterlimit="10" d="M43.5,130.2c1.21-0.4,3.81-0.24,5.08-0.45
					c1.42-0.26,2.59,0.1,4.08,0.18c1.24,0.08,2.98,0.33,4.17-0.03c1.18-0.35,2.52-2,2.29-3.29c-0.48-2.51-5.2-4.1-7.37-4.26
					c-1.38-0.1-2.79,0-4.17-0.08c-1.53-0.09-2.63,0.25-4.1,0.45c-0.6,0.1-1.42,0.07-1.99-0.11c-0.76-0.22-1.06-0.82-1.74-1.09
					c-1.32-0.53-3.19-0.53-4.58-0.39"/>
			</g>
		</g>
		<path fill="none" stroke="#08042C" d="M47.82,145.2c0.46-0.47,2.99-5.95,3.82-5.31"/>
		<path fill="none" stroke="#08042C" d="M46.16,144.51c-1.01-1.84,2.34-4.46,2.34-6.77c0,0.12,0,0.25,0,0.25"/>
		<path fill="none" stroke="#08042C" d="M48.94,136.22c0.37-0.76,1.86-2.28,1.48-3.1"/>
		<path fill="none" stroke="#08042C" d="M47.58,134.83c0.71-0.74,1.73-1.98,1.28-2.52"/>
		<path fill="none" stroke="#08042C" d="M40.5,121.99c0.28,0.05-0.66,1.45-0.78,2.48"/>
		<path fill="none" stroke="#08042C" d="M41.46,124.99c-0.86-0.71,1.55-2.24,0.9-1.86"/>
		<path fill="none" stroke="#08042C" d="M67.77,149.34c-0.46-0.24-1.36-1.24-2.11-1.65c-0.86-0.47-1.76-0.6-2.74-0.66
			c-1.07-0.07-4.7,0-4.7,1.06"/>
		<path fill="none" stroke="#08042C" d="M48.03,129.36c-0.15-1.44,3.49-2.04,4.53-2.07c1.45-0.04,4.01,0.54,5.11,1.53
			c0.13,0,0.17-0.08,0.12-0.24"/>
		<path fill="none" stroke="#08042C" stroke-miterlimit="10" d="M79.62,117.5c-0.62-1.04-2.8-0.85-3.93-0.81
			c-1.63,0.07-2.7,0.29-2.52,2.09c0.15,1.55,0.76,2.45,1.82,3.55c1.54,1.62,2.92,3.62,5.59,2.92c0.81-0.22,2.67-2.4,2.91-2.34"/>
		<path fill="none" stroke="#08042C" d="M38.52,178.08c0.03-0.83,0.67-1.51,0.78-2.36c0.11-0.83-0.04-1.75-0.31-2.5
			c-0.44-1.22-2.41-4.47-3.35-4.04"/>
		<path fill="none" stroke="#08042C" d="M34.93,50.28c0.73,0.19,3.61,1.53,3.74,3.13"/>
		<path fill="none" stroke="#08042C" d="M39.19,57.32c-1.54-2.31-5.11-3.06-7.77-5.59"/>
	</g>
</g>
</svg>
